<?xml version="1.0" encoding="UTF-8" standalone="no"?>
<svg
   xmlns:dc="http://purl.org/dc/elements/1.1/"
   xmlns:cc="http://creativecommons.org/ns#"
   xmlns:rdf="http://www.w3.org/1999/02/22-rdf-syntax-ns#"
   xmlns:svg="http://www.w3.org/2000/svg"
   xmlns="http://www.w3.org/2000/svg"
   xmlns:sodipodi="http://sodipodi.sourceforge.net/DTD/sodipodi-0.dtd"
   xmlns:inkscape="http://www.inkscape.org/namespaces/inkscape"
   id="Capa_1"
   viewBox="0 0 5540.2479 1500"
   version="1.1"
   sodipodi:docname="logo2.svg"
   width="1465.8574mm"
   height="396.875mm"
   inkscape:version="0.92.2 (5c3e80d, 2017-08-06)">
  <metadata
     id="metadata16">
    <rdf:RDF>
      <cc:Work
         rdf:about="">
        <dc:format>image/svg+xml</dc:format>
        <dc:type
           rdf:resource="http://purl.org/dc/dcmitype/StillImage" />
        <dc:title></dc:title>
      </cc:Work>
    </rdf:RDF>
  </metadata>
  <defs
     id="defs14" />
  <sodipodi:namedview
     pagecolor="#ffffff"
     bordercolor="#666666"
     borderopacity="1"
     objecttolerance="10"
     gridtolerance="10"
     guidetolerance="10"
     inkscape:pageopacity="0"
     inkscape:pageshadow="2"
     inkscape:window-width="1366"
     inkscape:window-height="705"
     id="namedview12"
     showgrid="false"
     units="mm"
     inkscape:zoom="0.5"
     inkscape:cx="1008.0618"
     inkscape:cy="84.499953"
     inkscape:window-x="-8"
     inkscape:window-y="-8"
     inkscape:window-maximized="1"
     inkscape:current-layer="Capa_1"
     fit-margin-top="0"
     fit-margin-left="0"
     fit-margin-right="0"
     fit-margin-bottom="0" />
  <style
     id="style2">.st0{fill:url(#SVGID_1_);}</style>
  <linearGradient
     id="SVGID_1_"
     gradientUnits="userSpaceOnUse"
     x1="87.5"
     y1="169"
     x2="87.5"
     gradientTransform="scale(8.8757397)">
    <stop
       offset="0"
       stop-color="#913EA8"
       id="stop4" />
    <stop
       offset="1"
       stop-color="#2789B6"
       id="stop6" />
  </linearGradient>
  <path
     class="st0"
     d="m 813.90534,1042.8994 h 15.97632 c 34.61538,-72.78108 49.70415,-91.42014 55.02957,-98.52072 10.6509,-14.20119 44.3787,-56.80473 277.81067,-57.69231 86.0947,0.88758 144.6746,7.10058 184.6154,15.08877 V 142.8994 C 1349.1124,63.90532 1285.2071,0 1205.3255,0 H 143.78698 C 63.905325,0 0,63.90532 0,142.8994 v 1061.5385 c 0,78.994 63.905325,142.8994 143.78698,142.8994 h 597.33728 c -8.87574,-28.4024 -14.20119,-59.4675 -14.20119,-87.8698 0,-26.6273 7.10061,-51.4794 17.75148,-72.7811 -10.65087,-8.8758 -18.63906,-21.3018 -23.07693,-37.2781 -5.32542,-22.1894 0,-47.0415 15.08877,-67.4557 11.53845,-15.9763 34.61538,-35.5029 77.21895,-39.0532 z M 645.26628,783.72778 H 596.44971 V 1081.9526 H 384.31953 V 243.19525 h 277.81065 c 64.79289,0 119.82249,6.213 166.8639,17.75148 47.04141,12.42603 85.20711,29.28993 115.38462,51.47928 30.17751,22.18935 53.25444,49.70415 67.4556,81.65682 14.2012,31.95264 22.1894,69.23076 22.1894,110.05917 0,36.39051 -6.213,71.89347 -19.5267,105.6213 -13.3136,33.7278 -34.61534,63.01776 -65.68043,88.7574 -30.17751,25.73964 -70.11834,46.15383 -119.82249,61.2426 -48.81657,15.97632 -110.05917,23.96448 -183.7278,23.96448 z m 173.96448,-272.4852 c 0,44.3787 -15.08874,77.21895 -45.26625,96.74556 -30.17754,19.52664 -75.44379,30.17751 -134.91126,30.17751 H 597.33729 V 389.64496 h 54.14199 c 57.69231,0 100.29588,9.76329 127.81065,30.17751 26.62722,18.63906 39.94083,49.70415 39.94083,91.42011 z m 689.64494,584.91122 h -5.3254 c -15.0887,0 -26.6272,6.213 -34.6154,12.4261 -19.5266,-42.6036 -50.5917,-108.2841 -69.2307,-131.361 -28.4024,-35.50296 -236.0947,-37.27809 -236.0947,-37.27809 0,0 -207.69235,1.77513 -236.0947,37.27809 -18.63906,23.9645 -49.70415,89.645 -69.23079,131.361 -7.98816,-7.1006 -19.52661,-12.4261 -34.61538,-12.4261 h -5.32542 c -41.71599,3.5503 -46.15386,31.9527 -43.49115,40.8284 3.55032,15.0888 29.28996,19.5267 52.36686,24.8521 -17.75145,20.4142 -46.15383,57.6923 -46.15383,98.5207 0,59.4675 29.28993,125.1479 42.60354,135.7988 2.66274,1.7752 10.6509,3.5503 23.07693,3.5503 v 71.8935 c 0,15.9764 12.42603,28.4024 28.40238,28.4024 h 77.21892 c 15.97635,0 28.40238,-12.426 28.40238,-28.4024 v -72.781 c 60.35506,-1.7752 127.81066,-3.5503 183.72776,-3.5503 55.9172,0 123.3728,1.7751 183.7278,3.5503 v 72.781 c 0,15.9764 12.4261,28.4024 28.4024,28.4024 h 77.2189 c 15.9764,0 28.4024,-12.426 28.4024,-28.4024 v -71.8935 c 12.4261,-0.8875 21.3018,-1.7751 23.077,-3.5503 12.426,-10.6509 42.6035,-76.3313 42.6035,-135.7988 0,-39.9408 -28.4024,-78.1065 -46.1538,-98.5207 23.0769,-5.3254 48.8165,-9.7633 52.3668,-24.8521 0.8876,-8.8757 -3.5503,-37.2781 -45.2663,-40.8284 z M 962.13018,1284.3195 H 849.40827 l 7.10061,-35.5029 c 2.66271,-15.0888 15.97632,-26.6273 31.95267,-26.6273 h 2.66271 l 71.00592,7.1006 z m 201.47932,-151.7751 c -161.5385,0 -272.48524,11.5384 -272.48524,11.5384 0,0 47.92899,-111.8343 71.8935,-141.1242 23.0769,-30.17757 200.59174,-31.06512 200.59174,-31.06512 0,0 176.6272,0.88755 200.5917,31.06512 23.0769,30.1775 71.8935,141.1242 71.8935,141.1242 0,0 -110.9468,-11.5384 -272.4852,-11.5384 z m 201.4793,151.7751 v -55.0296 l 71.0059,-7.1006 h 2.6627 c 15.0887,0 28.4024,10.6509 31.9527,26.6273 l 7.1006,35.5029 z"
     id="path9"
     inkscape:connector-curvature="0"
     style="fill:url(#SVGID_1_);stroke-width:8.8757391" />
  <g
     aria-label=".H.U. CIECHOMEX"
     style="font-style:normal;font-variant:normal;font-weight:normal;font-stretch:normal;font-size:86.78501129px;line-height:1.25;font-family:'Oswald Regular';-inkscape-font-specification:'Oswald Regular, ';letter-spacing:0px;word-spacing:0px;fill:#f7ca00;fill-opacity:1;stroke:none;stroke-width:2.95857978"
     id="text20"
     transform="scale(3)">
    <path
       d="m 482.3666,270.15848 v -26.21117 h 23.73027 v 26.21117 z"
       style="font-size:220.9072876px;fill:#f7ca00;fill-opacity:1;stroke-width:2.95857978"
       id="path44"
       inkscape:connector-curvature="0" />
    <path
       d="M 527.45412,270.15848 V 91.318496 h 24.91679 v 77.231254 h 45.95044 V 91.318496 h 24.91679 V 270.15848 h -24.91679 v -83.81102 h -45.95044 v 83.81102 z"
       style="font-size:220.9072876px;fill:#f7ca00;fill-opacity:1;stroke-width:2.95857978"
       id="path46"
       inkscape:connector-curvature="0" />
    <path
       d="m 648.04706,270.15848 v -26.21117 h 23.73028 v 26.21117 z"
       style="font-size:220.9072876px;fill:#f7ca00;fill-opacity:1;stroke-width:2.95857978"
       id="path48"
       inkscape:connector-curvature="0" />
    <path
       d="m 759.04003,269.18769 q -8.41346,2.91236 -19.84714,2.91236 -11.43367,0 -19.955,-2.91236 -8.41346,-3.02021 -13.69884,-8.08986 -5.28538,-5.17752 -8.52133,-13.15952 -3.12808,-8.08987 -4.31459,-17.04265 -1.18652,-9.06065 -1.18652,-21.03365 V 91.318496 h 23.73028 V 211.04852 q 0,7.65841 0.43146,13.26738 0.43146,5.60898 1.94157,11.32581 1.5101,5.60898 3.991,9.06065 2.58875,3.45168 7.01122,5.71684 4.42246,2.1573 10.57075,2.1573 6.1483,0 10.4629,-2.1573 4.42246,-2.26516 6.90335,-5.71684 2.58876,-3.55954 4.09887,-9.16851 1.5101,-5.60897 1.94156,-11.21795 0.43146,-5.60897 0.43146,-13.26738 V 91.318496 h 23.73028 V 209.86201 q 0,11.973 -1.18651,21.03365 -1.18652,8.95278 -4.42247,17.04265 -3.12808,7.982 -8.41346,13.15952 -5.28538,5.06965 -13.69884,8.08986 z"
       style="font-size:220.9072876px;fill:#f7ca00;fill-opacity:1;stroke-width:2.95857978"
       id="path50"
       inkscape:connector-curvature="0" />
    <path
       d="m 809.84438,270.15848 v -26.21117 h 23.73028 v 26.21117 z"
       style="font-size:220.9072876px;fill:#f7ca00;fill-opacity:1;stroke-width:2.95857978"
       id="path52"
       inkscape:connector-curvature="0" />
    <path
       d="m 950.06876,272.10005 q -11.11009,0 -19.52355,-3.02022 -8.41346,-3.02022 -13.8067,-8.19773 -5.28538,-5.17752 -8.73706,-12.83592 -3.34381,-7.76628 -4.63819,-16.2876 -1.29438,-8.52133 -1.29438,-19.09209 v -63.20882 q 0,-11.32581 1.29438,-20.17073 1.40224,-8.84492 4.74606,-16.50333 3.34381,-7.65841 8.73705,-12.62019 5.39325,-4.961788 13.69884,-7.766275 8.41346,-2.804487 19.52355,-2.804487 24.16173,0 34.62463,13.051652 10.46289,13.05165 10.46289,38.3999 v 14.23816 h -23.62241 v -12.62019 q 0,-4.09886 -0.10787,-6.36403 0,-2.37302 -0.21573,-5.8247 -0.10786,-3.45168 -0.53932,-5.39324 -0.43146,-1.94157 -1.18651,-4.53033 -0.64719,-2.58876 -1.72584,-3.991 -1.07865,-1.51011 -2.69662,-3.12808 -1.61798,-1.72584 -3.66741,-2.48089 -2.04943,-0.86292 -4.85392,-1.40225 -2.80449,-0.53932 -6.25616,-0.53932 -5.17752,0 -9.06065,1.18651 -3.88314,1.07865 -6.36403,3.55954 -2.48089,2.37303 -4.09887,5.28538 -1.51011,2.91235 -2.26516,7.55054 -0.75505,4.53033 -1.07865,8.84492 -0.21573,4.20674 -0.21573,10.4629 v 70.75936 q 0,20.17074 5.06965,28.04487 5.06965,7.87414 18.01344,7.87414 4.96178,0 8.52132,-1.07865 3.66741,-1.07865 5.93257,-3.55954 2.37303,-2.48089 3.77527,-5.17751 1.40225,-2.69663 2.04944,-7.22695 0.64718,-4.63819 0.75505,-8.52133 0.21573,-3.88313 0.21573,-10.1393 v -13.15951 h 23.62241 v 13.26738 q 0,10.24716 -1.29438,18.33703 -1.29438,8.08987 -4.42246,15.20895 -3.12808,7.01122 -8.19773,11.64941 -5.06965,4.63819 -12.94379,7.33481 -7.87413,2.58876 -18.22916,2.58876 z"
       style="font-size:220.9072876px;fill:#f7ca00;fill-opacity:1;stroke-width:2.95857978"
       id="path54"
       inkscape:connector-curvature="0" />
    <path
       d="M 1020.5045,270.15848 V 91.318496 h 24.4853 V 270.15848 Z"
       style="font-size:220.9072876px;fill:#f7ca00;fill-opacity:1;stroke-width:2.95857978"
       id="path56"
       inkscape:connector-curvature="0" />
    <path
       d="M 1074.1133,270.15848 V 91.318496 h 69.2493 v 18.444894 h -44.3325 v 59.10996 h 36.0269 v 17.79771 h -36.0269 v 65.58185 h 44.8718 v 17.90557 z"
       style="font-size:220.9072876px;fill:#f7ca00;fill-opacity:1;stroke-width:2.95857978"
       id="path58"
       inkscape:connector-curvature="0" />
    <path
       d="m 1208.9445,272.10005 q -11.1101,0 -19.5236,-3.02022 -8.4134,-3.02022 -13.8067,-8.19773 -5.2854,-5.17752 -8.737,-12.83592 -3.3439,-7.76628 -4.6382,-16.2876 -1.2944,-8.52133 -1.2944,-19.09209 v -63.20882 q 0,-11.32581 1.2944,-20.17073 1.4022,-8.84492 4.746,-16.50333 3.3438,-7.65841 8.7371,-12.62019 5.3932,-4.961788 13.6988,-7.766275 8.4135,-2.804487 19.5236,-2.804487 24.1617,0 34.6246,13.051652 10.4629,13.05165 10.4629,38.3999 v 14.23816 h -23.6224 v -12.62019 q 0,-4.09886 -0.1079,-6.36403 0,-2.37302 -0.2157,-5.8247 -0.1079,-3.45168 -0.5393,-5.39324 -0.4315,-1.94157 -1.1866,-4.53033 -0.6472,-2.58876 -1.7258,-3.991 -1.0786,-1.51011 -2.6966,-3.12808 -1.618,-1.72584 -3.6674,-2.48089 -2.0495,-0.86292 -4.8539,-1.40225 -2.8045,-0.53932 -6.2562,-0.53932 -5.1775,0 -9.0607,1.18651 -3.8831,1.07865 -6.364,3.55954 -2.4809,2.37303 -4.0989,5.28538 -1.5101,2.91235 -2.2651,7.55054 -0.7551,4.53033 -1.0787,8.84492 -0.2157,4.20674 -0.2157,10.4629 v 70.75936 q 0,20.17074 5.0697,28.04487 5.0696,7.87414 18.0134,7.87414 4.9618,0 8.5213,-1.07865 3.6674,-1.07865 5.9326,-3.55954 2.373,-2.48089 3.7753,-5.17751 1.4022,-2.69663 2.0494,-7.22695 0.6472,-4.63819 0.755,-8.52133 0.2158,-3.88313 0.2158,-10.1393 v -13.15951 h 23.6224 v 13.26738 q 0,10.24716 -1.2944,18.33703 -1.2944,8.08987 -4.4225,15.20895 -3.128,7.01122 -8.1977,11.64941 -5.0696,4.63819 -12.9438,7.33481 -7.8741,2.58876 -18.2291,2.58876 z"
       style="font-size:220.9072876px;fill:#f7ca00;fill-opacity:1;stroke-width:2.95857978"
       id="path60"
       inkscape:connector-curvature="0" />
    <path
       d="M 1278.1937,270.15848 V 91.318496 h 24.9168 v 77.231254 h 45.9505 V 91.318496 h 24.9167 V 270.15848 h -24.9167 v -83.81102 h -45.9505 v 83.81102 z"
       style="font-size:220.9072876px;fill:#f7ca00;fill-opacity:1;stroke-width:2.95857978"
       id="path62"
       inkscape:connector-curvature="0" />
    <path
       d="m 1447.5416,272.10005 q -13.3752,0 -22.9752,-3.99101 -9.4921,-3.991 -15.1011,-11.75727 -5.6089,-7.76627 -8.1977,-18.1213 -2.5888,-10.35503 -2.5888,-24.16173 v -67.73915 q 0,-27.93701 11.3259,-42.28304 11.4336,-14.453892 37.5369,-14.453892 25.9955,0 37.4291,14.561762 11.4337,14.45389 11.4337,42.17517 v 67.84701 q 0,27.93701 -11.5415,42.93023 -11.4337,14.99322 -37.3213,14.99322 z m -12.1887,-21.78871 q 4.8539,2.26516 12.1887,2.26516 7.3348,0 12.0809,-2.26516 4.8539,-2.26516 7.3348,-6.90335 2.4809,-4.63819 3.3438,-10.1393 0.9708,-5.60898 0.9708,-13.80671 v -78.30991 q 0,-8.08986 -0.9708,-13.48311 -0.8629,-5.39324 -3.3438,-9.92357 -2.4809,-4.53032 -7.3348,-6.57975 -4.7461,-2.1573 -12.0809,-2.1573 -7.3348,0 -12.1887,2.1573 -4.7461,2.04943 -7.2269,6.57975 -2.4809,4.53033 -3.4517,9.92357 -0.8629,5.39325 -0.8629,13.48311 v 78.30991 q 0,8.19773 0.8629,13.80671 0.9708,5.50111 3.4517,10.1393 2.4808,4.63819 7.2269,6.90335 z"
       style="font-size:220.9072876px;fill:#f7ca00;fill-opacity:1;stroke-width:2.95857978"
       id="path64"
       inkscape:connector-curvature="0" />
    <path
       d="M 1520.5661,270.15848 1523.91,91.318496 h 24.3774 l 31.6044,145.078274 31.8202,-145.078274 h 24.3774 l 3.3439,178.839984 h -20.1708 l -1.9415,-129.97719 -30.3101,129.97719 h -14.0224 l -30.0943,-129.97719 -1.9416,129.97719 z"
       style="font-size:220.9072876px;fill:#f7ca00;fill-opacity:1;stroke-width:2.95857978"
       id="path66"
       inkscape:connector-curvature="0" />
    <path
       d="M 1666.9387,270.15848 V 91.318496 h 69.2493 v 18.444894 h -44.3325 v 59.10996 h 36.0269 v 17.79771 h -36.0269 v 65.58185 h 44.8718 v 17.90557 z"
       style="font-size:220.9072876px;fill:#f7ca00;fill-opacity:1;stroke-width:2.95857978"
       id="path68"
       inkscape:connector-curvature="0" />
    <path
       d="m 1746.0037,270.15848 37.2134,-93.62672 -36.6741,-85.213264 h 23.191 l 27.1819,63.100954 24.8089,-63.100954 h 23.191 l -37.6449,87.262694 39.4786,91.57729 h -23.2988 l -29.0157,-67.30769 -25.3482,67.30769 z"
       style="font-size:220.9072876px;fill:#f7ca00;fill-opacity:1;stroke-width:2.95857978"
       id="path70"
       inkscape:connector-curvature="0" />
  </g>
  <g
     aria-label="PARKINGI W ÅODZI"
     style="font-style:normal;font-variant:normal;font-weight:normal;font-stretch:normal;font-size:86.78501129px;line-height:1.25;font-family:'Oswald Regular';-inkscape-font-specification:'Oswald Regular, ';letter-spacing:0px;word-spacing:0px;fill:#f7ca00;fill-opacity:1;stroke:none;stroke-width:2.95857978"
     id="text20-3"
     transform="scale(3)">
    <path
       d="m 571.23402,402.11836 h 4.44942 q 6.44108,0 8.85648,-2.28827 2.4154,-2.28828 2.4154,-8.77173 0,-2.66966 -0.12712,-4.36468 -0.12713,-1.73739 -0.59326,-3.26291 -0.42375,-1.52552 -1.14414,-2.33065 -0.72038,-0.84751 -2.03402,-1.44077 -1.27127,-0.59325 -3.00866,-0.80513 -1.69502,-0.21188 -4.23755,-0.21188 h -4.57655 z m -9.78874,39.74822 v -70.25857 h 17.41632 q 9.15311,0 13.26353,4.95793 4.11043,4.91556 4.11043,14.45004 0,8.55985 -4.44943,13.34829 -4.40705,4.78843 -12.88215,4.78843 h -7.66996 v 32.71388 z"
       style="stroke-width:2.95857978"
       id="path15"
       inkscape:connector-curvature="0" />
    <path
       d="m 609.92284,417.16166 h 11.73801 l -5.89019,-31.73924 z m -13.89916,24.70492 15.00092,-70.25857 h 9.44974 l 15.00092,70.25857 h -9.3226 l -3.22054,-17.71296 h -14.28054 l -3.34767,17.71296 z"
       style="stroke-width:2.95857978"
       id="path17"
       inkscape:connector-curvature="0" />
    <path
       d="m 652.42546,401.86411 h 3.68667 q 6.3987,0 9.11073,-2.50015 2.75441,-2.54253 2.75441,-9.15311 0,-6.3987 -2.37303,-8.9836 -2.33065,-2.58491 -8.85648,-2.58491 h -4.3223 z m -9.78874,40.00247 v -70.25857 h 14.11104 q 10.67862,0 15.63656,4.36467 5.00031,4.36468 5.00031,14.23817 0,13.56016 -8.68698,16.39932 l 10.04299,35.25641 h -9.49211 l -9.23786,-32.96814 h -7.58521 v 32.96814 z"
       style="stroke-width:2.95857978"
       id="path19"
       inkscape:connector-curvature="0" />
    <path
       d="m 687.72425,441.86658 v -70.25857 h 9.78873 v 33.09526 l 16.10269,-33.09526 h 9.11073 l -13.89916,30.97648 16.14506,39.28209 h -9.53448 l -14.11104,-34.83266 -3.8138,7.16146 v 27.6712 z"
       style="stroke-width:2.95857978"
       id="path21"
       inkscape:connector-curvature="0" />
    <path
       d="m 731.24388,441.86658 v -70.25857 h 9.61924 v 70.25857 z"
       style="stroke-width:2.95857978"
       id="path23"
       inkscape:connector-curvature="0" />
    <path
       d="m 752.3045,441.86658 v -70.25857 h 6.65295 l 19.95886,46.65542 v -46.65542 h 8.17847 v 70.25857 h -6.27157 l -20.25549,-48.01144 v 48.01144 z"
       style="stroke-width:2.95857978"
       id="path25"
       inkscape:connector-curvature="0" />
    <path
       d="m 814.80835,442.71409 q -9.57686,0 -13.81441,-6.01732 -4.23755,-6.0597 -4.23755,-17.88246 v -23.5184 q 0,-4.83081 0.50851,-8.4751 0.55088,-3.64429 1.82214,-6.7377 1.31364,-3.09341 3.43242,-5.04269 2.11877,-1.94927 5.38169,-3.00866 3.26291,-1.10176 7.66996,-1.10176 9.74636,0 14.02629,4.95793 4.27992,4.95794 4.27992,15.59419 v 2.5849 h -9.19548 v -2.20353 q 0,-2.96628 -0.1695,-4.87318 -0.1695,-1.94927 -0.72038,-3.68667 -0.50851,-1.73739 -1.52552,-2.66965 -0.97464,-0.97464 -2.58491,-1.52552 -1.61026,-0.55088 -3.98329,-0.55088 -1.82215,0 -3.22054,0.42375 -1.39839,0.38138 -2.37303,1.05939 -0.97463,0.63563 -1.65264,1.82215 -0.63563,1.14414 -1.01701,2.28827 -0.38138,1.10177 -0.59326,2.88154 -0.21188,1.73739 -0.25425,3.17816 -0.0424,1.44077 -0.0424,3.60192 v 26.01855 q 0,8.09372 1.94927,11.61089 1.94928,3.51716 7.45809,3.51716 5.50882,0 7.54284,-3.81379 2.03402,-3.8138 2.03402,-12.24652 v -4.91556 h -8.89885 v -6.94958 h 17.79771 v 34.83266 h -6.2292 l -0.93226,-8.09372 q -3.17816,8.94123 -12.4584,8.94123 z"
       style="stroke-width:2.95857978"
       id="path27"
       inkscape:connector-curvature="0" />
    <path
       d="m 844.97971,441.86658 v -70.25857 h 9.61923 v 70.25857 z"
       style="stroke-width:2.95857978"
       id="path29"
       inkscape:connector-curvature="0" />
    <path
       d="m 894.94042,441.86658 -11.48376,-70.25857 h 8.22085 l 7.50046,50.51159 9.49211,-50.29971 h 6.94958 l 9.53449,50.51158 7.33096,-50.72346 h 8.00897 l -11.27188,70.25857 h -7.11909 l -9.78874,-52.03711 -9.91586,52.03711 z"
       style="stroke-width:2.95857978"
       id="path31"
       inkscape:connector-curvature="0" />
    <path
       d="M 968.92803,441.86658 V 409.1527 l -6.01732,3.30528 v -7.54283 l 6.01732,-3.30529 v -30.00185 h 9.78874 v 24.53541 l 9.11073,-5.00031 v 7.50046 l -9.11073,5.04269 v 31.14599 h 17.92484 v 7.03433 z"
       style="stroke-width:2.95857978"
       id="path33"
       inkscape:connector-curvature="0" />
    <path
       d="m 1021.2194,442.62934 q -5.2546,0 -9.026,-1.5679 -3.729,-1.56789 -5.9326,-4.61893 -2.2035,-3.05103 -3.2205,-7.11908 -1.017,-4.06805 -1.017,-9.49211 v -26.61181 q 0,-10.97525 4.4494,-16.61119 4.4918,-5.67832 14.7467,-5.67832 10.2125,0 14.7043,5.72069 4.4918,5.67832 4.4918,16.56882 v 26.65419 q 0,10.97525 -4.5342,16.86544 -4.4918,5.8902 -14.6619,5.8902 z m -4.7884,-8.55985 q 1.9069,0.88988 4.7884,0.88988 2.8815,0 4.7461,-0.88988 1.9069,-0.88989 2.8815,-2.71204 0.9746,-1.82214 1.3136,-3.98329 0.3814,-2.20353 0.3814,-5.42406 v -30.76461 q 0,-3.17817 -0.3814,-5.29694 -0.339,-2.11877 -1.3136,-3.89855 -0.9746,-1.77977 -2.8815,-2.5849 -1.8646,-0.84751 -4.7461,-0.84751 -2.8815,0 -4.7884,0.84751 -1.8646,0.80513 -2.8392,2.5849 -0.9746,1.77978 -1.356,3.89855 -0.339,2.11877 -0.339,5.29694 v 30.76461 q 0,3.22053 0.339,5.42406 0.3814,2.16115 1.356,3.98329 0.9746,1.82215 2.8392,2.71204 z"
       style="stroke-width:2.95857978"
       id="path35"
       inkscape:connector-curvature="0" />
    <path
       d="m 1050.1195,441.86658 v -70.25857 h 15.2551 q 11.3991,0 16.0604,5.16981 4.7036,5.16981 4.7036,16.27219 v 25.84905 q 0,11.56851 -4.6613,17.2892 -4.6189,5.67832 -15.3823,5.67832 z m 9.7887,-7.03433 h 5.5088 q 2.2459,0 3.9409,-0.42376 1.7374,-0.46613 2.8816,-1.05939 1.1441,-0.63563 1.9069,-1.99165 0.8051,-1.35601 1.1865,-2.50015 0.4237,-1.14414 0.6356,-3.39004 0.2119,-2.2459 0.2543,-3.81379 0.042,-1.61027 0.042,-4.61893 v -22.84039 q 0,-2.54253 -0.085,-4.27993 -0.085,-1.73739 -0.339,-3.47479 -0.2543,-1.73739 -0.7628,-2.83916 -0.5085,-1.10176 -1.3136,-2.0764 -0.8051,-1.01701 -1.9917,-1.52551 -1.1865,-0.55089 -2.7967,-0.84751 -1.6103,-0.29663 -3.7715,-0.29663 h -5.2969 z"
       style="stroke-width:2.95857978"
       id="path37"
       inkscape:connector-curvature="0" />
    <path
       d="m 1093.6814,441.86658 v -7.03433 l 20.6369,-56.18991 h -19.3656 v -7.03433 h 29.79 v 4.23755 l -21.781,58.98669 h 21.8234 v 7.03433 z"
       style="stroke-width:2.95857978"
       id="path39"
       inkscape:connector-curvature="0" />
    <path
       d="m 1132.455,441.86658 v -70.25857 h 9.6193 v 70.25857 z"
       style="stroke-width:2.95857978"
       id="path41"
       inkscape:connector-curvature="0" />
  </g>
</svg>
