<?xml version="1.0" encoding="UTF-8" standalone="no"?>
<!-- Created with Inkscape (http://www.inkscape.org/) -->

<svg
   xmlns:dc="http://purl.org/dc/elements/1.1/"
   xmlns:cc="http://creativecommons.org/ns#"
   xmlns:rdf="http://www.w3.org/1999/02/22-rdf-syntax-ns#"
   xmlns:svg="http://www.w3.org/2000/svg"
   xmlns="http://www.w3.org/2000/svg"
   xmlns:sodipodi="http://sodipodi.sourceforge.net/DTD/sodipodi-0.dtd"
   xmlns:inkscape="http://www.inkscape.org/namespaces/inkscape"
   version="1.1"
   id="svg3743"
   xml:space="preserve"
   width="416.88998"
   height="156.23747"
   viewBox="0 0 416.88998 156.23747"
   sodipodi:docname="1.svg"
   inkscape:version="0.92.4 (5da689c313, 2019-01-14)"><metadata
     id="metadata3749"><rdf:RDF><cc:Work
         rdf:about=""><dc:format>image/svg+xml</dc:format><dc:type
           rdf:resource="http://purl.org/dc/dcmitype/StillImage" /><dc:title></dc:title></cc:Work></rdf:RDF></metadata><defs
     id="defs3747"><radialGradient
       fx="0"
       fy="0"
       cx="0"
       cy="0"
       r="1"
       gradientUnits="userSpaceOnUse"
       gradientTransform="matrix(419.66998,0,0,-419.66998,250,250)"
       spreadMethod="pad"
       id="radialGradient3771"><stop
         style="stop-opacity:1;stop-color:#ffffff"
         offset="0"
         id="stop3765" /><stop
         style="stop-opacity:1;stop-color:#ffffff"
         offset="0.75314554"
         id="stop3767" /><stop
         style="stop-opacity:1;stop-color:#eaeaea"
         offset="1"
         id="stop3769" /></radialGradient><clipPath
       clipPathUnits="userSpaceOnUse"
       id="clipPath3781"><path
         d="M 0,500 H 500 V 0 H 0 Z"
         id="path3779"
         inkscape:connector-curvature="0" /></clipPath><linearGradient
       x1="0"
       y1="0"
       x2="1"
       y2="0"
       gradientUnits="userSpaceOnUse"
       gradientTransform="matrix(-1.3e-6,-29.057764,-29.057764,1.3e-6,250,398.6665)"
       spreadMethod="pad"
       id="linearGradient3803"><stop
         style="stop-opacity:1;stop-color:#ffd42b"
         offset="0"
         id="stop3799" /><stop
         style="stop-opacity:1;stop-color:#ffba00"
         offset="1"
         id="stop3801" /></linearGradient><clipPath
       clipPathUnits="userSpaceOnUse"
       id="clipPath3813"><path
         d="M 0,500 H 500 V 0 H 0 Z"
         id="path3811"
         inkscape:connector-curvature="0" /></clipPath><linearGradient
       x1="0"
       y1="0"
       x2="1"
       y2="0"
       gradientUnits="userSpaceOnUse"
       gradientTransform="matrix(1.3e-6,-29.057241,29.057241,1.3e-6,250.00049,256.87354)"
       spreadMethod="pad"
       id="linearGradient3903"><stop
         style="stop-opacity:1;stop-color:#ffd42b"
         offset="0"
         id="stop3899" /><stop
         style="stop-opacity:1;stop-color:#ffba00"
         offset="1"
         id="stop3901" /></linearGradient><clipPath
       clipPathUnits="userSpaceOnUse"
       id="clipPath3913"><path
         d="M 0,500 H 500 V 0 H 0 Z"
         id="path3911"
         inkscape:connector-curvature="0" /></clipPath><linearGradient
       x1="0"
       y1="0"
       x2="1"
       y2="0"
       gradientUnits="userSpaceOnUse"
       gradientTransform="matrix(-6e-7,-14.529012,-14.529012,6e-7,142.43311,96.587891)"
       spreadMethod="pad"
       id="linearGradient4027"><stop
         style="stop-opacity:1;stop-color:#ffd42b"
         offset="0"
         id="stop4023" /><stop
         style="stop-opacity:1;stop-color:#ffba00"
         offset="1"
         id="stop4025" /></linearGradient><clipPath
       clipPathUnits="userSpaceOnUse"
       id="clipPath4037"><path
         d="M 0,500 H 500 V 0 H 0 Z"
         id="path4035"
         inkscape:connector-curvature="0" /></clipPath><linearGradient
       x1="0"
       y1="0"
       x2="1"
       y2="0"
       gradientUnits="userSpaceOnUse"
       gradientTransform="matrix(-7e-7,15.871279,15.871279,7e-7,357.56738,63.117187)"
       spreadMethod="pad"
       id="linearGradient4111"><stop
         style="stop-opacity:1;stop-color:#ffba00"
         offset="0"
         id="stop4107" /><stop
         style="stop-opacity:1;stop-color:#ffa900"
         offset="1"
         id="stop4109" /></linearGradient><linearGradient
       x1="0"
       y1="0"
       x2="1"
       y2="0"
       gradientUnits="userSpaceOnUse"
       gradientTransform="matrix(-6e-7,13.001705,13.001705,6e-7,357.56738,116.91895)"
       spreadMethod="pad"
       id="linearGradient4131"><stop
         style="stop-opacity:1;stop-color:#ffd42b"
         offset="0"
         id="stop4127" /><stop
         style="stop-opacity:1;stop-color:#ffba00"
         offset="1"
         id="stop4129" /></linearGradient><clipPath
       clipPathUnits="userSpaceOnUse"
       id="clipPath4141"><path
         d="M 0,500 H 500 V 0 H 0 Z"
         id="path4139"
         inkscape:connector-curvature="0" /></clipPath><clipPath
       clipPathUnits="userSpaceOnUse"
       id="clipPath4175"><path
         d="M 0,500 H 500 V 0 H 0 Z"
         id="path4173"
         inkscape:connector-curvature="0" /></clipPath></defs><sodipodi:namedview
     pagecolor="#ffffff"
     bordercolor="#666666"
     borderopacity="1"
     objecttolerance="10"
     gridtolerance="10"
     guidetolerance="10"
     inkscape:pageopacity="0"
     inkscape:pageshadow="2"
     inkscape:window-width="1920"
     inkscape:window-height="986"
     id="namedview3745"
     showgrid="false"
     inkscape:zoom="1.0012632"
     inkscape:cx="208.44467"
     inkscape:cy="-97.988906"
     inkscape:window-x="-11"
     inkscape:window-y="-11"
     inkscape:window-maximized="1"
     inkscape:current-layer="g3751"
     fit-margin-top="0"
     fit-margin-left="0"
     fit-margin-right="0"
     fit-margin-bottom="0" /><g
     id="g3751"
     inkscape:groupmode="layer"
     inkscape:label="182895-OX3LMP-439"
     transform="matrix(1.3333333,0,0,-1.3333333,-124.88866,587.55973)"><g
       id="g3775"><g
         id="g3777"
         clip-path="url(#clipPath3781)"><g
           id="g3783"
           transform="translate(93.6665,350.4917)"><path
             d="M 0,0 C 0,-3 3.334,-10 8.667,-10 H 48.333 C 53.667,-10 59,-6.333 66.5,-6.333 h 182 37.583 c 4.75,0 16.084,3 21.084,6.333 5,3.333 5.5,4.167 5.5,6.333 V 19.5 c 0,2 -6,4.167 -6,7.667 V 46.5 c 0,5 -45,37 -59.334,40.5 -14.333,3.5 -77.166,3.833 -94,2.333 C 136.5,87.833 100.334,70 77.5,53.167 53,53.167 26.667,47.011 15.167,40.089 3.667,33.167 0,21.333 0,16.333 Z"
             style="fill:#ffba00;fill-opacity:1;fill-rule:nonzero;stroke:none"
             id="path3785"
             inkscape:connector-curvature="0" /></g></g></g><g
       id="g3787"><g
         id="g3789"><g
           id="g3795"><g
             id="g3797"><path
               d="m 96.634,377.366 c -2.119,-4.217 -2.967,-8.157 -2.967,-10.541 v 0 -16.334 c 0,-2.999 3.333,-9.999 8.667,-9.999 v 0 H 142 c 5.334,0 10.667,3.666 18.167,3.666 v 0 h 182 37.583 c 4.75,0 16.084,3 21.084,6.333 v 0 c 5,3.334 5.5,4.168 5.5,6.334 v 0 13.167 c 0,2 -6,4.166 -6,7.666 v 0 17.245 z"
               style="fill:url(#linearGradient3803);stroke:none"
               id="path3805"
               inkscape:connector-curvature="0" /></g></g></g></g><g
       id="g3807"><g
         id="g3809"
         clip-path="url(#clipPath3813)"><g
           id="g3815"
           transform="translate(272.332,391.6978)"><path
             d="M 0,0 C 2.4,25.53 5.85,40.375 6.281,42.173 6.103,42.172 5.937,42.171 5.768,42.171 5.23,39.917 1.861,25.131 -0.498,0.047 -2.865,-25.145 -0.868,-40.243 -0.54,-42.456 h 0.505 C -0.324,-40.533 -2.39,-25.421 0,0"
             style="fill:#f09400;fill-opacity:1;fill-rule:nonzero;stroke:none"
             id="path3817"
             inkscape:connector-curvature="0" /></g><g
           id="g3819"
           transform="translate(183.5542,395.2549)"><path
             d="M 0,0 C 0.904,0.93 1.209,2.497 0.837,4.3 0.369,6.573 -1.043,8.667 -2.521,9.28 L -2.712,8.818 C -1.377,8.265 -0.09,6.322 0.348,4.199 0.685,2.561 0.428,1.157 -0.358,0.349 -1.854,-1.19 -12.399,-2.796 -31.7,-4.425 c -4.369,-0.369 -7.131,-0.438 -10.054,-0.512 -3.357,-0.084 -6.827,-0.171 -13.113,-0.702 -10.276,-0.868 -18.604,-3.132 -23.078,-4.348 -0.703,-0.191 -1.319,-0.359 -1.838,-0.492 -1.08,-0.279 -1.846,-0.384 -2.392,-0.399 -0.141,-0.159 -0.271,-0.32 -0.408,-0.48 0.091,-0.006 0.162,-0.025 0.26,-0.025 0.692,0 1.582,0.14 2.665,0.419 0.521,0.135 1.138,0.302 1.845,0.495 4.458,1.212 12.757,3.468 22.988,4.332 6.271,0.529 9.734,0.616 13.083,0.7 2.931,0.074 5.7,0.144 10.084,0.514 C -11.96,-3.261 -1.604,-1.65 0,0"
             style="fill:#f09400;fill-opacity:1;fill-rule:nonzero;stroke:none"
             id="path3821"
             inkscape:connector-curvature="0" /></g><g
           id="g3823"
           transform="translate(334.9209,382.5884)"><path
             d="m 0,0 -0.208,-0.342 c -3.043,-5.003 -8.078,-11.732 -12.123,-17.139 -3.074,-4.111 -5.731,-7.662 -6.805,-9.489 -2.349,-3.993 -5.726,-6.377 -9.035,-6.377 h -34.453 c 0.02,-0.129 0.031,-0.199 0.033,-0.208 l -0.493,-0.084 c -0.002,0.012 -0.019,0.116 -0.045,0.292 h -78.167 c -4.201,0 -4.276,4.505 -4.35,8.862 -0.007,0.427 -0.014,0.852 -0.025,1.27 -0.123,4.673 -0.014,33.515 0.997,39.451 0.801,4.708 7.699,10.858 20.504,18.28 9.604,5.567 18.581,9.912 25.276,12.234 11.582,4.018 26.378,4.533 37.975,4.533 l 3.498,-0.005 c 0.188,0 0.397,0.001 0.6,0.002 0.045,0.189 0.072,0.3 0.074,0.312 l 0.486,-0.122 c -0.003,-0.009 -0.019,-0.074 -0.047,-0.188 2.418,0.014 5.75,0.068 9.53,0.129 5.8,0.094 12.375,0.201 17.95,0.201 5.608,0 9.166,-0.109 10.875,-0.332 C -12.446,50.562 7.606,23.35 8.333,19.111 9.058,14.885 5.259,8.642 0,0 m 8.825,19.196 c -0.824,4.808 -21.039,31.84 -26.714,32.58 -1.73,0.226 -5.308,0.336 -10.939,0.336 -5.579,0 -12.155,-0.107 -17.958,-0.201 -4.395,-0.071 -8.19,-0.133 -10.635,-0.133 l -3.498,0.005 c -11.636,0 -26.486,-0.518 -38.139,-4.56 -6.724,-2.332 -15.732,-6.691 -25.363,-12.274 -12.939,-7.5 -19.919,-13.768 -20.746,-18.629 -1.016,-5.964 -1.127,-34.867 -1.004,-39.548 0.011,-0.417 0.018,-0.84 0.025,-1.266 0.074,-4.383 0.158,-9.353 4.85,-9.353 h 113.125 c 3.487,0 7.025,2.476 9.465,6.623 1.061,1.804 3.709,5.344 6.775,9.443 4.052,5.416 9.094,12.156 12.151,17.179 l 0.207,0.342 c 5.314,8.735 9.154,15.046 8.398,19.456"
             style="fill:#f09400;fill-opacity:1;fill-rule:nonzero;stroke:none"
             id="path3825"
             inkscape:connector-curvature="0" /></g><g
           id="g3827"
           transform="translate(353.5,380.2417)"><path
             d="m 0,0 c -16.845,0 -30.5,-13.655 -30.5,-30.5 0,-1.908 0.184,-3.772 0.52,-5.583 h 18.647 37.583 c 1.008,0 2.322,0.142 3.8,0.386 0.29,1.69 0.45,3.425 0.45,5.197 C 30.5,-13.655 16.845,0 0,0"
             style="fill:#ff8b00;fill-opacity:1;fill-rule:nonzero;stroke:none"
             id="path3829"
             inkscape:connector-curvature="0" /></g><g
           id="g3831"
           transform="translate(160.167,344.1582)"><path
             d="m 0,0 h 26.314 c 0.335,1.811 0.519,3.675 0.519,5.583 0,16.845 -13.655,30.5 -30.5,30.5 -16.845,0 -30.5,-13.655 -30.5,-30.5 0,-3.225 0.504,-6.332 1.432,-9.25 h 14.568 C -12.833,-3.667 -7.5,0 0,0"
             style="fill:#ff8b00;fill-opacity:1;fill-rule:nonzero;stroke:none"
             id="path3833"
             inkscape:connector-curvature="0" /></g><g
           id="g3835"
           transform="translate(182.75,349.7417)"><path
             d="m 0,0 c 0,-14.498 -11.752,-26.25 -26.25,-26.25 -14.498,0 -26.25,11.752 -26.25,26.25 0,14.498 11.752,26.25 26.25,26.25 C -11.752,26.25 0,14.498 0,0"
             style="fill:#404040;fill-opacity:1;fill-rule:nonzero;stroke:none"
             id="path3837"
             inkscape:connector-curvature="0" /></g><g
           id="g3839"
           transform="translate(175.0732,349.7417)"><path
             d="m 0,0 c 0,-10.258 -8.315,-18.573 -18.573,-18.573 -10.258,0 -18.573,8.315 -18.573,18.573 0,10.258 8.315,18.573 18.573,18.573 C -8.315,18.573 0,10.258 0,0"
             style="fill:#c4c4c4;fill-opacity:1;fill-rule:nonzero;stroke:none"
             id="path3841"
             inkscape:connector-curvature="0" /></g><g
           id="g3843"
           transform="translate(379.75,349.7417)"><path
             d="m 0,0 c 0,-14.498 -11.752,-26.25 -26.25,-26.25 -14.498,0 -26.25,11.752 -26.25,26.25 0,14.498 11.752,26.25 26.25,26.25 C -11.752,26.25 0,14.498 0,0"
             style="fill:#404040;fill-opacity:1;fill-rule:nonzero;stroke:none"
             id="path3845"
             inkscape:connector-curvature="0" /></g><g
           id="g3847"
           transform="translate(372.0732,349.7417)"><path
             d="m 0,0 c 0,-10.258 -8.315,-18.573 -18.573,-18.573 -10.258,0 -18.573,8.315 -18.573,18.573 0,10.258 8.315,18.573 18.573,18.573 C -8.315,18.573 0,10.258 0,0"
             style="fill:#c4c4c4;fill-opacity:1;fill-rule:nonzero;stroke:none"
             id="path3849"
             inkscape:connector-curvature="0" /></g><g
           id="g3851"
           transform="translate(102.5835,383.2417)"><path
             d="m 0,0 c 0,0 -3,-3.667 -3.583,-5.417 -0.584,-1.75 0,-3.75 2.416,-3.75 H 13 c 2.25,0 6.417,3.417 8.75,6.167 2.333,2.75 5.833,7.25 4.833,7.833 C 25.583,5.417 12.667,3.75 0,0"
             style="fill:#ffffff;fill-opacity:1;fill-rule:nonzero;stroke:none"
             id="path3853"
             inkscape:connector-curvature="0" /></g><g
           id="g3855"
           transform="translate(109.6777,355.2417)"><path
             d="m 0,0 c -0.834,1.657 -2.854,3 -4.511,3 h -11.5 v -7.75 c 0,-0.827 0.262,-1.962 0.741,-3.167 H 0.989 c 1.657,0 2.323,1.343 1.489,3 z"
             style="fill:#404040;fill-opacity:1;fill-rule:nonzero;stroke:none"
             id="path3857"
             inkscape:connector-curvature="0" /></g><g
           id="g3859"
           transform="translate(171.167,403.6582)"><path
             d="m 0,0 h 9 c 1.833,0 4.833,0.333 7.667,2.083 2.833,1.75 15.479,11.25 23.479,15.938 8,4.687 12.532,7.06 13.25,7.375 1.281,0.562 1.843,2.187 0.187,2.187 h -5.26 C 48.323,27.583 23.083,17.5 0,0"
             style="fill:#474747;fill-opacity:1;fill-rule:nonzero;stroke:none"
             id="path3861"
             inkscape:connector-curvature="0" /></g><g
           id="g3863"
           transform="translate(199.6665,406.9082)"><path
             d="m 0,0 c -1.458,-1.139 -3.083,-4.25 0,-4.417 3.083,-0.166 63.083,2.167 65.917,2.209 2.833,0.041 3.666,1.708 4.166,3.625 0.5,1.916 4,19.416 4.167,20.916 0.167,1.5 0.167,2.917 -2.417,2.917 -2.583,0 -22.5,-0.75 -33.666,-4.333 C 27,17.333 12.167,9.5 0,0"
             style="fill:#474747;fill-opacity:1;fill-rule:nonzero;stroke:none"
             id="path3865"
             inkscape:connector-curvature="0" /></g><g
           id="g3867"
           transform="translate(281.334,429.0747)"><path
             d="m 0,0 c 0,0 -0.75,-19.833 -0.75,-20.833 0,-1 0.499,-2.667 2.416,-2.667 1.917,0 62.584,1.417 65.084,1.5 2.5,0.083 3.666,0.917 3.25,2.667 -0.417,1.75 -14.001,18.25 -25.168,21.166 C 33.666,4.75 4.582,3.083 3.166,3.083 1.75,3.083 0.094,2.49 0,0"
             style="fill:#474747;fill-opacity:1;fill-rule:nonzero;stroke:none"
             id="path3869"
             inkscape:connector-curvature="0" /></g><g
           id="g3871"
           transform="translate(358.6699,429.021)"><path
             d="m 0,0 c -1.916,-0.816 -4.551,-1.938 -5.17,-2.196 -1,-0.417 -0.834,-2.083 1.916,-3.667 2.75,-1.583 11.584,-9 15.084,-12.25 3.5,-3.25 5.834,-4.25 8.334,-4.25 H 32.328 C 23.863,-15.482 11.056,-6.538 0,0"
             style="fill:#474747;fill-opacity:1;fill-rule:nonzero;stroke:none"
             id="path3873"
             inkscape:connector-curvature="0" /></g><g
           id="g3875"
           transform="translate(400.334,377.6582)"><path
             d="m 0,0 v 17.833 h -14.25 c -2.084,0 -3.168,-0.791 -2.084,-3.77 1.084,-2.98 6.416,-10.979 7.916,-12.146 1.5,-1.167 2.834,-2.084 4.75,-2.084 H 0.018 C 0.014,-0.11 0,-0.057 0,0"
             style="fill:#d4085e;fill-opacity:1;fill-rule:nonzero;stroke:none"
             id="path3877"
             inkscape:connector-curvature="0" /></g><g
           id="g3879"
           transform="translate(406.334,362.1997)"><path
             d="m 0,0 v 4.198 h -4.609 c -1.161,0 -2.1,-0.94 -2.1,-2.099 C -6.709,0.94 -5.77,0 -4.609,0 Z"
             style="fill:#d4085e;fill-opacity:1;fill-rule:nonzero;stroke:none"
             id="path3881"
             inkscape:connector-curvature="0" /></g></g></g></g></svg>