<?xml version="1.0" encoding="UTF-8" standalone="no"?>
<svg
   xmlns:dc="http://purl.org/dc/elements/1.1/"
   xmlns:cc="http://creativecommons.org/ns#"
   xmlns:rdf="http://www.w3.org/1999/02/22-rdf-syntax-ns#"
   xmlns:svg="http://www.w3.org/2000/svg"
   xmlns="http://www.w3.org/2000/svg"
   xmlns:sodipodi="http://sodipodi.sourceforge.net/DTD/sodipodi-0.dtd"
   xmlns:inkscape="http://www.inkscape.org/namespaces/inkscape"
   height="512pt"
   viewBox="-10 0 492.35605 512"
   width="492.35605pt"
   version="1.1"
   id="svg22"
   sodipodi:docname="iconDrive.svg"
   inkscape:version="0.92.4 (5da689c313, 2019-01-14)">
  <metadata
     id="metadata28">
    <rdf:RDF>
      <cc:Work
         rdf:about="">
        <dc:format>image/svg+xml</dc:format>
        <dc:type
           rdf:resource="http://purl.org/dc/dcmitype/StillImage" />
        <dc:title></dc:title>
      </cc:Work>
    </rdf:RDF>
  </metadata>
  <defs
     id="defs26" />
  <sodipodi:namedview
     pagecolor="#ffffff"
     bordercolor="#666666"
     borderopacity="1"
     objecttolerance="10"
     gridtolerance="10"
     guidetolerance="10"
     inkscape:pageopacity="0"
     inkscape:pageshadow="2"
     inkscape:window-width="1920"
     inkscape:window-height="1017"
     id="namedview24"
     showgrid="false"
     inkscape:zoom="0.48889805"
     inkscape:cx="-217.49167"
     inkscape:cy="218.60836"
     inkscape:window-x="-8"
     inkscape:window-y="-8"
     inkscape:window-maximized="1"
     inkscape:current-layer="svg22"
     inkscape:pagecheckerboard="true"
     fit-margin-top="0"
     fit-margin-left="0"
     fit-margin-right="0"
     fit-margin-bottom="0" />
  <g
     inkscape:groupmode="layer"
     id="layer1"
     inkscape:label="Layer 1"
     transform="translate(10e-7,2.1e-5)" />
  <g
     inkscape:groupmode="layer"
     id="layer2"
     inkscape:label="Layer 2"
     transform="translate(10e-7,2.1e-5)" />
  <g
     id="g50"
     transform="translate(766.23543,-44.487801)">
    <path
       inkscape:connector-curvature="0"
       style="fill:#ff0000"
       id="path2"
       d="M -430.04793,510.37452 -342.2159,392.54249 -369.37606,315.4878 H -690.5284 l -26.94141,76.44531 z m 0,0" />
    <g
       transform="translate(-736.25072,-17.235293)"
       style="fill:#800000;fill-opacity:1"
       id="g43">
      <path
         d="m 236.66275,573.7231 79.59276,-46.11328 -229.955061,-85.88672 -15.68571,132 z"
         id="path6"
         inkscape:connector-curvature="0"
         style="fill:#ff0000;fill-opacity:1;stroke-width:1.02260184"
         sodipodi:nodetypes="ccccc" />
      <path
         inkscape:connector-curvature="0"
         style="fill:#ff0000;fill-opacity:1"
         d="M 86.300449,441.7231 8.679351,437.45747 -39.984711,573.7231 h 111.28516 z m 0,0"
         id="path10" />
      <path
         d="m 271.42012,573.7231 34.35955,-46.11328 -99.26974,-85.88672 -6.7714,132 z"
         id="path6-9"
         inkscape:connector-curvature="0"
         style="fill:#800000;fill-opacity:1;stroke-width:0.67188275"
         sodipodi:nodetypes="ccccc" />
    </g>
    <path
       sodipodi:nodetypes="ccccc"
       style="fill:#ffda2d;stroke-width:1.10343122"
       inkscape:connector-curvature="0"
       id="path14"
       d="m -654.57858,444.24536 146.97306,-145.85212 -9.73051,-41.10412 c -63.20436,78.94646 -37.37647,58.43022 -153.48413,166.72106 z" />
    <path
       inkscape:connector-curvature="0"
       style="fill:#800000;fill-opacity:1"
       id="path18"
       d="m -529.95028,44.487801 c -74.39843,0 -135,60.597659 -135,134.999999 0,25.5 7.19922,50.39844 21.59766,73.19922 l 113.40234,147.40234 114.30079,-148.60156 c 13.5,-21.60156 20.69921,-46.5 20.69921,-72 0,-74.40234 -60.60156,-134.999999 -135,-134.999999 z m 0,194.999999 c -33,0 -60,-27 -60,-60 0,-33 27,-60 60,-60 32.9961,0 60,27 60,60 0,33 -27.0039,60 -60,60 z m 0,0" />
    <g
       style="fill:#ffda2d;fill-opacity:1"
       transform="translate(-1354.5658,70.685043)"
       id="g3755">
      <path
         inkscape:connector-curvature="0"
         style="fill:#ffda2d;fill-opacity:1;stroke-width:1"
         d="m 890.82647,485.80276 132.68753,-132.6875 -11.1641,-31.25781 -87.83201,87.83202 -287.42188,-88.4414 -10.10157,28.28906 62.6211,19.26563 v 117 h 30 V 378.03323 l 180.89453,55.66015 -52.10547,52.10938 z m 0,0"
         id="path14-3" />
    </g>
    <path
       sodipodi:nodetypes="scccsccs"
       id="path20-4"
       d="m -393.45027,179.4878 c 0,25.5 -7.19922,50.39844 -20.69922,72 L -528.45027,400.08937 V 239.4878 c 32.99609,0 65.47824,-27 65.47824,-60 0,-33 -32.48215,-60 -65.47824,-60 V 44.487803 c 74.39843,0 135,60.597657 135,134.999997 z"
       style="fill:#ff0000;fill-opacity:1;stroke-width:1"
       inkscape:connector-curvature="0" />
    <path
       inkscape:connector-curvature="0"
       id="path45"
       d="m -397.01481,489.77827 65.963,-65.97797 0.96439,2.32273 c 1.14063,2.74721 46.20802,128.88307 46.20802,129.3283 0,0.16771 -40.29715,0.30492 -89.54921,0.30492 h -89.5492 z"
       style="fill:#800000;fill-opacity:1;stroke-width:0.76703101" />
    <path
       inkscape:connector-curvature="0"
       id="path19"
       d="m -471.11119,467.727 c -21.09336,-6.61364 -42.49352,-13.32824 -47.55593,-14.92135 l -9.20436,-2.89656 -0.42283,-24.10956 c -0.31496,-17.95909 0.0764,-24.61603 1.53406,-26.09488 1.07628,-1.09192 16.08888,-20.38949 33.36132,-42.88347 l 31.40444,-40.89817 h 46.15601 c 34.63525,0 46.74891,0.47864 48.53136,1.91758 1.30644,1.05467 7.82391,17.95655 14.48328,37.55974 l 12.10793,35.64216 -44.47788,44.51259 c -24.46284,24.48191 -45.17267,44.44151 -46.02187,44.35465 -0.84918,-0.0869 -18.80217,-5.56911 -39.89553,-12.18273 z"
       style="fill:#800000;fill-opacity:1;stroke-width:1.53406203" />
  </g>
</svg>
