<?xml version="1.0" encoding="UTF-8" standalone="no"?>
<svg
   xmlns:dc="http://purl.org/dc/elements/1.1/"
   xmlns:cc="http://creativecommons.org/ns#"
   xmlns:rdf="http://www.w3.org/1999/02/22-rdf-syntax-ns#"
   xmlns:svg="http://www.w3.org/2000/svg"
   xmlns="http://www.w3.org/2000/svg"
   xmlns:sodipodi="http://sodipodi.sourceforge.net/DTD/sodipodi-0.dtd"
   xmlns:inkscape="http://www.inkscape.org/namespaces/inkscape"
   id="Capa_1"
   viewBox="0 0 300.00001 82.486778"
   version="1.1"
   sodipodi:docname="logo.svg"
   width="113.39286mm"
   height="31.178038mm"
   inkscape:version="0.92.4 (5da689c313, 2019-01-14)">
  <metadata
     id="metadata16">
    <rdf:RDF>
      <cc:Work
         rdf:about="">
        <dc:format>image/svg+xml</dc:format>
        <dc:type
           rdf:resource="http://purl.org/dc/dcmitype/StillImage" />
        <dc:title></dc:title>
      </cc:Work>
    </rdf:RDF>
  </metadata>
  <defs
     id="defs14" />
  <sodipodi:namedview
     pagecolor="#ffffff"
     bordercolor="#666666"
     borderopacity="1"
     objecttolerance="10"
     gridtolerance="10"
     guidetolerance="10"
     inkscape:pageopacity="0"
     inkscape:pageshadow="2"
     inkscape:window-width="1920"
     inkscape:window-height="986"
     id="namedview12"
     showgrid="false"
     units="mm"
     inkscape:zoom="1"
     inkscape:cx="239.42856"
     inkscape:cy="267.74451"
     inkscape:window-x="-11"
     inkscape:window-y="-11"
     inkscape:window-maximized="1"
     inkscape:current-layer="layer2"
     fit-margin-top="0.2"
     fit-margin-left="0"
     fit-margin-right="0"
     fit-margin-bottom="0"
     scale-x="0.7" />
  <style
     id="style2">.st0{fill:url(#SVGID_1_);}</style>
  <linearGradient
     id="SVGID_1_"
     gradientUnits="userSpaceOnUse"
     x1="87.5"
     y1="169"
     x2="87.5"
     gradientTransform="scale(8.8757397)">
    <stop
       offset="0"
       stop-color="#913EA8"
       id="stop4" />
    <stop
       offset="1"
       stop-color="#2789B6"
       id="stop6" />
  </linearGradient>
  <g
     inkscape:groupmode="layer"
     id="layer1"
     inkscape:label="Layer 1"
     transform="translate(0,-1417.5133)" />
  <g
     inkscape:groupmode="layer"
     id="layer2"
     inkscape:label="Layer 2"
     transform="translate(0,-1417.5133)">
    <g
       id="g317"
       transform="matrix(0.05463843,0,0,0.05463843,0,1418.0424)">
      <path
         style="fill:url(#SVGID_1_);stroke-width:8.8757391"
         inkscape:connector-curvature="0"
         id="path9"
         d="m 813.90534,1042.8994 h 15.97632 c 34.61538,-72.78108 49.70415,-91.42014 55.02957,-98.52072 10.6509,-14.20119 44.3787,-56.80473 277.81067,-57.69231 86.0947,0.88758 144.6746,7.10058 184.6154,15.08877 V 142.8994 C 1349.1124,63.90532 1285.2071,0 1205.3255,0 H 143.78698 C 63.905325,0 0,63.90532 0,142.8994 v 1061.5385 c 0,78.994 63.905325,142.8994 143.78698,142.8994 h 597.33728 c -8.87574,-28.4024 -14.20119,-59.4675 -14.20119,-87.8698 0,-26.6273 7.10061,-51.4794 17.75148,-72.7811 -10.65087,-8.8758 -18.63906,-21.3018 -23.07693,-37.2781 -5.32542,-22.1894 0,-47.0415 15.08877,-67.4557 11.53845,-15.9763 34.61538,-35.5029 77.21895,-39.0532 z M 645.26628,783.72778 H 596.44971 V 1081.9526 H 384.31953 V 243.19525 h 277.81065 c 64.79289,0 119.82249,6.213 166.8639,17.75148 47.04141,12.42603 85.20711,29.28993 115.38462,51.47928 30.17751,22.18935 53.25444,49.70415 67.4556,81.65682 14.2012,31.95264 22.1894,69.23076 22.1894,110.05917 0,36.39051 -6.213,71.89347 -19.5267,105.6213 -13.3136,33.7278 -34.61534,63.01776 -65.68043,88.7574 -30.17751,25.73964 -70.11834,46.15383 -119.82249,61.2426 -48.81657,15.97632 -110.05917,23.96448 -183.7278,23.96448 z m 173.96448,-272.4852 c 0,44.3787 -15.08874,77.21895 -45.26625,96.74556 -30.17754,19.52664 -75.44379,30.17751 -134.91126,30.17751 H 597.33729 V 389.64496 h 54.14199 c 57.69231,0 100.29588,9.76329 127.81065,30.17751 26.62722,18.63906 39.94083,49.70415 39.94083,91.42011 z m 689.64494,584.91122 h -5.3254 c -15.0887,0 -26.6272,6.213 -34.6154,12.4261 -19.5266,-42.6036 -50.5917,-108.2841 -69.2307,-131.361 -28.4024,-35.50296 -236.0947,-37.27809 -236.0947,-37.27809 0,0 -207.69235,1.77513 -236.0947,37.27809 -18.63906,23.9645 -49.70415,89.645 -69.23079,131.361 -7.98816,-7.1006 -19.52661,-12.4261 -34.61538,-12.4261 h -5.32542 c -41.71599,3.5503 -46.15386,31.9527 -43.49115,40.8284 3.55032,15.0888 29.28996,19.5267 52.36686,24.8521 -17.75145,20.4142 -46.15383,57.6923 -46.15383,98.5207 0,59.4675 29.28993,125.1479 42.60354,135.7988 2.66274,1.7752 10.6509,3.5503 23.07693,3.5503 v 71.8935 c 0,15.9764 12.42603,28.4024 28.40238,28.4024 h 77.21892 c 15.97635,0 28.40238,-12.426 28.40238,-28.4024 v -72.781 c 60.35506,-1.7752 127.81066,-3.5503 183.72776,-3.5503 55.9172,0 123.3728,1.7751 183.7278,3.5503 v 72.781 c 0,15.9764 12.4261,28.4024 28.4024,28.4024 h 77.2189 c 15.9764,0 28.4024,-12.426 28.4024,-28.4024 v -71.8935 c 12.4261,-0.8875 21.3018,-1.7751 23.077,-3.5503 12.426,-10.6509 42.6035,-76.3313 42.6035,-135.7988 0,-39.9408 -28.4024,-78.1065 -46.1538,-98.5207 23.0769,-5.3254 48.8165,-9.7633 52.3668,-24.8521 0.8876,-8.8757 -3.5503,-37.2781 -45.2663,-40.8284 z M 962.13018,1284.3195 H 849.40827 l 7.10061,-35.5029 c 2.66271,-15.0888 15.97632,-26.6273 31.95267,-26.6273 h 2.66271 l 71.00592,7.1006 z m 201.47932,-151.7751 c -161.5385,0 -272.48524,11.5384 -272.48524,11.5384 0,0 47.92899,-111.8343 71.8935,-141.1242 23.0769,-30.17757 200.59174,-31.06512 200.59174,-31.06512 0,0 176.6272,0.88755 200.5917,31.06512 23.0769,30.1775 71.8935,141.1242 71.8935,141.1242 0,0 -110.9468,-11.5384 -272.4852,-11.5384 z m 201.4793,151.7751 v -55.0296 l 71.0059,-7.1006 h 2.6627 c 15.0887,0 28.4024,10.6509 31.9527,26.6273 l 7.1006,35.5029 z"
         class="st0" />
      <g
         transform="matrix(0.39305287,0,0,0.39305287,1163.4997,827.58176)"
         id="g249">
        <path
           inkscape:connector-curvature="0"
           id="path44"
           style="font-style:normal;font-variant:normal;font-weight:normal;font-stretch:normal;font-size:220.9072876px;line-height:1.25;font-family:'Oswald Regular';-inkscape-font-specification:'Oswald Regular, ';letter-spacing:0px;word-spacing:0px;fill:#f7ca00;fill-opacity:1;stroke:none;stroke-width:8.86727428"
           d="m 1685,1323.1808 v -78.5585 h 71.1229 v 78.5585 z" />
        <path
           inkscape:connector-curvature="0"
           id="path46"
           style="font-style:normal;font-variant:normal;font-weight:normal;font-stretch:normal;font-size:220.9072876px;line-height:1.25;font-family:'Oswald Regular';-inkscape-font-specification:'Oswald Regular, ';letter-spacing:0px;word-spacing:0px;fill:#f7ca00;fill-opacity:1;stroke:none;stroke-width:8.86727428"
           d="M 1820.1336,1323.1808 V 787.17258 h 74.6791 v 231.47282 h 137.7198 V 787.17258 h 74.6791 v 536.00822 h -74.6791 v -251.1932 h -137.7198 v 251.1932 z" />
        <path
           inkscape:connector-curvature="0"
           id="path48"
           style="font-style:normal;font-variant:normal;font-weight:normal;font-stretch:normal;font-size:220.9072876px;line-height:1.25;font-family:'Oswald Regular';-inkscape-font-specification:'Oswald Regular, ';letter-spacing:0px;word-spacing:0px;fill:#f7ca00;fill-opacity:1;stroke:none;stroke-width:8.86727428"
           d="m 2181.5674,1323.1808 v -78.5585 h 71.1229 v 78.5585 z" />
        <path
           inkscape:connector-curvature="0"
           id="path50"
           style="font-style:normal;font-variant:normal;font-weight:normal;font-stretch:normal;font-size:220.9072876px;line-height:1.25;font-family:'Oswald Regular';-inkscape-font-specification:'Oswald Regular, ';letter-spacing:0px;word-spacing:0px;fill:#f7ca00;fill-opacity:1;stroke:none;stroke-width:8.86727428"
           d="m 2514.2287,1320.2713 q -25.2163,8.7287 -59.4846,8.7287 -34.2683,0 -59.8079,-8.7287 -25.2163,-9.052 -41.0574,-24.2465 -15.841,-15.5177 -25.5396,-39.4409 -9.3753,-24.2465 -12.9314,-51.0792 -3.5562,-27.156 -3.5562,-63.0407 V 787.17258 h 71.123 v 358.84752 q 0,22.9533 1.2931,39.7642 1.2932,16.8109 5.8192,33.945 4.526,16.8109 11.9616,27.156 7.7588,10.3452 21.0136,17.1342 13.2547,6.4657 31.682,6.4657 18.4273,0 31.3587,-6.4657 13.2548,-6.789 20.6903,-17.1342 7.7589,-10.6684 12.2849,-27.4793 4.526,-16.8108 5.8191,-33.6217 1.2932,-16.8109 1.2932,-39.7642 V 787.17258 h 71.1229 V 1142.464 q 0,35.8847 -3.5561,63.0407 -3.5562,26.8327 -13.2548,51.0792 -9.3752,23.9232 -25.2163,39.4409 -15.841,15.1945 -41.0573,24.2465 z" />
        <path
           inkscape:connector-curvature="0"
           id="path52"
           style="font-style:normal;font-variant:normal;font-weight:normal;font-stretch:normal;font-size:220.9072876px;line-height:1.25;font-family:'Oswald Regular';-inkscape-font-specification:'Oswald Regular, ';letter-spacing:0px;word-spacing:0px;fill:#f7ca00;fill-opacity:1;stroke:none;stroke-width:8.86727428"
           d="m 2666.4964,1323.1808 v -78.5585 h 71.1229 v 78.5585 z" />
        <path
           inkscape:connector-curvature="0"
           id="path54"
           style="font-style:normal;font-variant:normal;font-weight:normal;font-stretch:normal;font-size:220.9072876px;line-height:1.25;font-family:'Oswald Regular';-inkscape-font-specification:'Oswald Regular, ';letter-spacing:0px;word-spacing:0px;fill:#f7ca00;fill-opacity:1;stroke:none;stroke-width:8.86727428"
           d="m 3086.7683,1329 q -33.2984,0 -58.5147,-9.052 -25.2164,-9.052 -41.3806,-24.5697 -15.8411,-15.5178 -26.1862,-38.4711 -10.0219,-23.2766 -13.9013,-48.8162 -3.8795,-25.5396 -3.8795,-57.2216 V 961.42376 q 0,-33.94503 3.8795,-60.45448 4.2027,-26.50946 14.2246,-49.46278 10.0218,-22.95331 26.1861,-37.82446 16.1644,-14.87117 41.0574,-23.2766 Q 3053.4699,782 3086.7683,782 q 72.4161,0 103.7749,39.11761 31.3587,39.11761 31.3587,115.08984 v 42.67374 h -70.7996 v -37.82446 q 0,-12.28485 -0.3233,-19.07388 0,-7.11227 -0.6466,-17.45744 -0.3233,-10.34516 -1.6164,-16.16429 -1.2932,-5.81915 -3.5562,-13.57803 -1.9397,-7.75887 -5.1725,-11.96158 -3.2329,-4.52601 -8.0822,-9.37529 -4.8493,-5.17258 -10.9917,-7.43557 -6.1425,-2.58629 -14.5479,-4.20274 -8.4054,-1.61641 -18.7506,-1.61641 -15.5177,0 -27.156,3.55613 -11.6383,3.23287 -19.0739,10.66844 -7.4356,7.1123 -12.2849,15.84102 -4.526,8.72871 -6.789,22.63001 -2.263,13.57803 -3.2328,26.50946 -0.6466,12.60818 -0.6466,31.35876 V 1162.831 q 0,60.4545 15.1944,84.0543 15.1945,23.5999 53.9888,23.5999 14.8712,0 25.5396,-3.2329 10.9917,-3.2328 17.7807,-10.6684 7.1123,-7.4356 11.315,-15.5177 4.2028,-8.0822 6.1425,-21.6602 1.9397,-13.9013 2.263,-25.5396 0.6466,-11.6383 0.6466,-30.3889 v -39.4409 h 70.7996 v 39.7642 q 0,30.7122 -3.8794,54.9587 -3.8795,24.2464 -13.2548,45.5833 -9.3752,21.0136 -24.5697,34.9149 -15.1944,13.9013 -38.7943,21.9834 -23.5999,7.7589 -54.6354,7.7589 z" />
        <path
           inkscape:connector-curvature="0"
           id="path56"
           style="font-style:normal;font-variant:normal;font-weight:normal;font-stretch:normal;font-size:220.9072876px;line-height:1.25;font-family:'Oswald Regular';-inkscape-font-specification:'Oswald Regular, ';letter-spacing:0px;word-spacing:0px;fill:#f7ca00;fill-opacity:1;stroke:none;stroke-width:8.86727428"
           d="M 3297.874,1323.1808 V 787.17258 h 73.3859 v 536.00822 z" />
        <path
           inkscape:connector-curvature="0"
           id="path58"
           style="font-style:normal;font-variant:normal;font-weight:normal;font-stretch:normal;font-size:220.9072876px;line-height:1.25;font-family:'Oswald Regular';-inkscape-font-specification:'Oswald Regular, ';letter-spacing:0px;word-spacing:0px;fill:#f7ca00;fill-opacity:1;stroke:none;stroke-width:8.86727428"
           d="M 3458.5471,1323.1808 V 787.17258 h 207.5497 v 55.28191 h -132.8706 v 177.16071 h 107.9776 v 53.3423 h -107.9776 v 196.5579 h 134.487 v 53.6654 z" />
        <path
           inkscape:connector-curvature="0"
           id="path60"
           style="font-style:normal;font-variant:normal;font-weight:normal;font-stretch:normal;font-size:220.9072876px;line-height:1.25;font-family:'Oswald Regular';-inkscape-font-specification:'Oswald Regular, ';letter-spacing:0px;word-spacing:0px;fill:#f7ca00;fill-opacity:1;stroke:none;stroke-width:8.86727428"
           d="m 3862.6549,1329 q -33.2985,0 -58.5149,-9.052 -25.2162,-9.052 -41.3806,-24.5697 -15.8411,-15.5178 -26.186,-38.4711 -10.0222,-23.2766 -13.9014,-48.8162 -3.8795,-25.5396 -3.8795,-57.2216 V 961.42376 q 0,-33.94503 3.8795,-60.45448 4.2026,-26.50946 14.2244,-49.46278 10.0219,-22.95331 26.1864,-37.82446 16.1641,-14.87117 41.0572,-23.2766 Q 3829.3564,782 3862.6549,782 q 72.416,0 103.7747,39.11761 31.3588,39.11761 31.3588,115.08984 v 42.67374 h -70.7996 v -37.82446 q 0,-12.28485 -0.3234,-19.07388 0,-7.11227 -0.6465,-17.45744 -0.3234,-10.34516 -1.6163,-16.16429 -1.2933,-5.81915 -3.5565,-13.57803 -1.9397,-7.75887 -5.1724,-11.96158 -3.2327,-4.52601 -8.0821,-9.37529 -4.8494,-5.17258 -10.9917,-7.43557 -6.1426,-2.58629 -14.5478,-4.20274 -8.4055,-1.61641 -18.7507,-1.61641 -15.5177,0 -27.1562,3.55613 -11.6382,3.23287 -19.0738,10.66844 -7.4356,7.1123 -12.285,15.84102 -4.5259,8.72871 -6.7888,22.63001 -2.2631,13.57803 -3.233,26.50946 -0.6465,12.60818 -0.6465,31.35876 V 1162.831 q 0,60.4545 15.1946,84.0543 15.1943,23.5999 53.9887,23.5999 14.8712,0 25.5395,-3.2329 10.9917,-3.2328 17.7808,-10.6684 7.1122,-7.4356 11.3151,-15.5177 4.2026,-8.0822 6.1424,-21.6602 1.9397,-13.9013 2.2628,-25.5396 0.6468,-11.6383 0.6468,-30.3889 v -39.4409 h 70.7996 v 39.7642 q 0,30.7122 -3.8795,54.9587 -3.8795,24.2464 -13.2548,45.5833 -9.3751,21.0136 -24.5697,34.9149 -15.1943,13.9013 -38.7944,21.9834 -23.5997,7.7589 -54.6351,7.7589 z" />
        <path
           inkscape:connector-curvature="0"
           id="path62"
           style="font-style:normal;font-variant:normal;font-weight:normal;font-stretch:normal;font-size:220.9072876px;line-height:1.25;font-family:'Oswald Regular';-inkscape-font-specification:'Oswald Regular, ';letter-spacing:0px;word-spacing:0px;fill:#f7ca00;fill-opacity:1;stroke:none;stroke-width:8.86727428"
           d="M 4070.2044,1323.1808 V 787.17258 h 74.6791 v 231.47282 h 137.72 V 787.17258 h 74.6788 v 536.00822 h -74.6788 v -251.1932 h -137.72 v 251.1932 z" />
        <path
           inkscape:connector-curvature="0"
           id="path64"
           style="font-style:normal;font-variant:normal;font-weight:normal;font-stretch:normal;font-size:220.9072876px;line-height:1.25;font-family:'Oswald Regular';-inkscape-font-specification:'Oswald Regular, ';letter-spacing:0px;word-spacing:0px;fill:#f7ca00;fill-opacity:1;stroke:none;stroke-width:8.86727428"
           d="m 4577.7635,1329 q -40.0873,0 -68.8598,-11.9616 -28.4492,-11.9616 -45.2601,-35.2382 -16.8107,-23.2766 -24.5697,-54.312 -7.7589,-31.0355 -7.7589,-72.4161 V 952.04847 q 0,-83.7311 33.9452,-126.72815 Q 4499.5283,782 4577.7635,782 q 77.9122,0 112.1803,43.64362 34.2683,43.32032 34.2683,126.40485 v 203.34693 q 0,83.7311 -34.5914,128.6678 Q 4655.3523,1329 4577.7635,1329 Z m -36.5312,-65.3038 q 14.5478,6.789 36.5312,6.789 21.9835,0 36.2082,-6.789 14.5478,-6.789 21.9834,-20.6903 7.4356,-13.9013 10.0218,-30.3889 2.9097,-16.8109 2.9097,-41.3806 V 936.53072 q 0,-24.24643 -2.9097,-40.41075 -2.5862,-16.16429 -10.0218,-29.74232 -7.4356,-13.578 -21.9834,-19.72043 -14.2247,-6.46572 -36.2082,-6.46572 -21.9834,0 -36.5312,6.46572 -14.2247,6.14243 -21.66,19.72043 -7.4356,13.57803 -10.3452,29.74232 -2.5863,16.16432 -2.5863,40.41075 v 234.70568 q 0,24.5697 2.5863,41.3806 2.9096,16.4876 10.3452,30.3889 7.4353,13.9013 21.66,20.6903 z" />
        <path
           inkscape:connector-curvature="0"
           id="path66"
           style="font-style:normal;font-variant:normal;font-weight:normal;font-stretch:normal;font-size:220.9072876px;line-height:1.25;font-family:'Oswald Regular';-inkscape-font-specification:'Oswald Regular, ';letter-spacing:0px;word-spacing:0px;fill:#f7ca00;fill-opacity:1;stroke:none;stroke-width:8.86727428"
           d="m 4796.6281,1323.1808 10.0222,-536.00822 h 73.0624 l 94.7228,434.81972 95.3695,-434.81972 h 73.0625 l 10.0221,536.00822 h -60.4547 l -5.8189,-389.55964 -90.8436,389.55964 h -42.0271 l -90.1968,-389.55964 -5.8192,389.55964 z" />
        <path
           inkscape:connector-curvature="0"
           id="path68"
           style="font-style:normal;font-variant:normal;font-weight:normal;font-stretch:normal;font-size:220.9072876px;line-height:1.25;font-family:'Oswald Regular';-inkscape-font-specification:'Oswald Regular, ';letter-spacing:0px;word-spacing:0px;fill:#f7ca00;fill-opacity:1;stroke:none;stroke-width:8.86727428"
           d="M 5235.3271,1323.1808 V 787.17258 h 207.5498 v 55.28191 h -132.8707 v 177.16071 h 107.9777 v 53.3423 h -107.9777 v 196.5579 h 134.4871 v 53.6654 z" />
        <path
           inkscape:connector-curvature="0"
           id="path70"
           style="font-style:normal;font-variant:normal;font-weight:normal;font-stretch:normal;font-size:220.9072876px;line-height:1.25;font-family:'Oswald Regular';-inkscape-font-specification:'Oswald Regular, ';letter-spacing:0px;word-spacing:0px;fill:#f7ca00;fill-opacity:1;stroke:none;stroke-width:8.86727428"
           d="m 5472.2959,1323.1808 111.5337,-280.6122 -109.9173,-255.39602 h 69.5066 l 81.468,189.12232 74.3557,-189.12232 h 69.5066 l -112.827,261.53842 118.3229,274.4698 h -69.8298 l -86.964,-201.7304 -75.9721,201.7304 z" />
        <g
           aria-label="iconButtonI W ÅODZI"
           style="font-style:normal;font-variant:normal;font-weight:normal;font-stretch:normal;font-size:86.78501129px;line-height:1.25;font-family:'Oswald Regular';-inkscape-font-specification:'Oswald Regular, ';letter-spacing:0px;word-spacing:0px;fill:#f7ca00;fill-opacity:1;stroke:none;stroke-width:2.95857978"
           id="text20-3"
           transform="matrix(3,0,0,3,-33.941125,-1646.7189)">
          <path
             d="m 485.91719,888.7526 h 11.547 q 16.7158,0 22.9842,-5.9385 6.2684,-5.9383 6.2684,-22.7642 0,-6.9281 -0.3301,-11.3271 -0.3298,-4.5089 -1.5395,-8.4679 -1.0998,-3.9589 -2.9694,-6.0483 -1.8693,-2.1994 -5.2785,-3.7391 -3.299,-1.5395 -7.8079,-2.0894 -4.3991,-0.5499 -10.9973,-0.5499 h -11.8769 z m -25.4036,103.1537 V 809.5729 h 45.1984 q 23.7541,0 34.42139,12.8667 10.66721,12.7568 10.66721,37.5003 0,22.2145 -11.547,34.6412 -11.43721,12.427 -33.4316,12.427 h -19.9048 v 84.8982 z"
             style="font-style:normal;font-variant:normal;font-weight:normal;font-stretch:normal;font-size:86.78501129px;line-height:1.25;font-family:'Oswald Regular';-inkscape-font-specification:'Oswald Regular, ';letter-spacing:0px;word-spacing:0px;fill:#f7ca00;fill-opacity:1;stroke:none;stroke-width:7.67804193"
             id="path15-3"
             inkscape:connector-curvature="0" />
        </g>
      </g>
      <g
         transform="translate(28.84949,89.61216)"
         id="g264">
        <path
           d="m 1472.9748,496.14421 h 87.9841 L 1516.808,258.23828 Z m -104.1832,185.17933 112.4416,-526.63305 h 70.8318 l 112.4417,526.63305 h -69.8789 l -24.14,-132.77005 h -107.042 l -25.0929,132.77005 z"
           style="font-style:normal;font-variant:normal;font-weight:normal;font-stretch:normal;font-size:86.78501129px;line-height:1.25;font-family:'Oswald Regular';-inkscape-font-specification:'Oswald Regular, ';letter-spacing:0px;word-spacing:0px;fill:#f7ca00;fill-opacity:1;stroke:none;stroke-width:22.17645454"
           id="path17"
           inkscape:connector-curvature="0" />
        <path
           d="m 1791.5593,381.47938 h 27.6339 q 47.9624,0 68.2908,-18.74036 20.646,-19.05766 20.646,-68.60836 0,-47.96236 -17.7874,-67.33784 -17.4696,-19.37549 -66.3849,-19.37549 h -32.3984 z m -73.3728,299.84416 V 154.69049 h 105.7712 q 80.043,0 117.2061,32.71598 37.4805,32.71597 37.4805,106.72419 0,101.64216 -65.1144,122.92353 l 75.2785,264.26935 h -71.1494 l -69.2438,-247.11732 h -56.8559 v 247.11732 z"
           style="font-style:normal;font-variant:normal;font-weight:normal;font-stretch:normal;font-size:86.78501129px;line-height:1.25;font-family:'Oswald Regular';-inkscape-font-specification:'Oswald Regular, ';letter-spacing:0px;word-spacing:0px;fill:#f7ca00;fill-opacity:1;stroke:none;stroke-width:22.17645454"
           id="path19"
           inkscape:connector-curvature="0" />
        <path
           d="M 2056.1465,681.32354 V 154.69049 h 73.3725 v 248.07027 l 120.7001,-248.07027 h 68.2908 l -104.1832,232.1885 121.0177,294.44455 h -71.467 l -105.7715,-261.09319 -28.5869,53.67979 v 207.4134 z"
           style="font-style:normal;font-variant:normal;font-weight:normal;font-stretch:normal;font-size:86.78501129px;line-height:1.25;font-family:'Oswald Regular';-inkscape-font-specification:'Oswald Regular, ';letter-spacing:0px;word-spacing:0px;fill:#f7ca00;fill-opacity:1;stroke:none;stroke-width:22.17645454"
           id="path21"
           inkscape:connector-curvature="0" />
        <path
           d="M 2382.3538,681.32354 V 154.69049 h 72.1026 v 526.63305 z"
           style="font-style:normal;font-variant:normal;font-weight:normal;font-stretch:normal;font-size:86.78501129px;line-height:1.25;font-family:'Oswald Regular';-inkscape-font-specification:'Oswald Regular, ';letter-spacing:0px;word-spacing:0px;fill:#f7ca00;fill-opacity:1;stroke:none;stroke-width:22.17645454"
           id="path23"
           inkscape:connector-curvature="0" />
        <path
           d="M 2540.2168,681.32354 V 154.69049 h 49.8682 l 149.6043,349.71242 V 154.69049 h 61.3028 v 526.63305 h -47.0094 L 2602.155,321.44703 v 359.87651 z"
           style="font-style:normal;font-variant:normal;font-weight:normal;font-stretch:normal;font-size:86.78501129px;line-height:1.25;font-family:'Oswald Regular';-inkscape-font-specification:'Oswald Regular, ';letter-spacing:0px;word-spacing:0px;fill:#f7ca00;fill-opacity:1;stroke:none;stroke-width:22.17645454"
           id="path25"
           inkscape:connector-curvature="0" />
        <path
           d="m 3008.7234,687.6761 q -71.7848,0 -103.5481,-45.10353 -31.763,-45.42134 -31.763,-134.04056 V 332.2465 q 0,-36.20994 3.8115,-63.52631 4.1291,-27.31637 13.6581,-50.50339 9.8465,-23.18702 25.7283,-37.79827 15.8815,-14.61101 40.3393,-22.55189 24.4575,-8.2582 57.491,-8.2582 73.0553,0 105.1362,37.1629 32.0808,37.16289 32.0808,116.88828 v 19.37549 h -68.9262 v -16.5169 q 0,-22.23407 -1.2705,-36.52751 -1.2705,-14.611 -5.3996,-27.63393 -3.8115,-13.02293 -11.4348,-20.01087 -7.3055,-7.3055 -19.3755,-11.4346 -12.07,-4.12935 -29.8574,-4.12935 -13.6581,0 -24.14,3.1764 -10.4819,2.85859 -17.7874,7.94089 -7.3055,4.76423 -12.3875,13.65806 -4.7645,8.57601 -7.6231,17.15202 -2.8588,8.25845 -4.4469,21.59895 -1.5883,13.02292 -1.9059,23.82239 -0.3178,10.79948 -0.3178,26.99881 v 195.02561 q 0,60.66772 14.611,87.03114 14.6112,26.36343 55.9032,26.36343 41.2923,0 56.5384,-28.58688 15.2464,-28.58688 15.2464,-91.79563 v -36.84508 h -66.7027 v -52.09171 h 133.4054 v 261.09319 h -46.6918 l -6.988,-60.66772 q -23.8224,67.02028 -93.3837,67.02028 z"
           style="font-style:normal;font-variant:normal;font-weight:normal;font-stretch:normal;font-size:86.78501129px;line-height:1.25;font-family:'Oswald Regular';-inkscape-font-specification:'Oswald Regular, ';letter-spacing:0px;word-spacing:0px;fill:#f7ca00;fill-opacity:1;stroke:none;stroke-width:22.17645454"
           id="path27"
           inkscape:connector-curvature="0" />
        <path
           d="M 3234.8769,681.32354 V 154.69049 h 72.1023 v 526.63305 z"
           style="font-style:normal;font-variant:normal;font-weight:normal;font-stretch:normal;font-size:86.78501129px;line-height:1.25;font-family:'Oswald Regular';-inkscape-font-specification:'Oswald Regular, ';letter-spacing:0px;word-spacing:0px;fill:#f7ca00;fill-opacity:1;stroke:none;stroke-width:22.17645454"
           id="path29"
           inkscape:connector-curvature="0" />
        <path
           d="m 3609.3644,681.32354 -86.078,-526.63305 h 61.6205 l 56.2208,378.61686 71.1494,-377.02879 h 52.0914 l 71.4672,378.61687 54.9503,-380.20494 h 60.0324 l -84.4899,526.63305 h -53.3622 l -73.3729,-390.05146 -74.3258,390.05146 z"
           style="font-style:normal;font-variant:normal;font-weight:normal;font-stretch:normal;font-size:86.78501129px;line-height:1.25;font-family:'Oswald Regular';-inkscape-font-specification:'Oswald Regular, ';letter-spacing:0px;word-spacing:0px;fill:#f7ca00;fill-opacity:1;stroke:none;stroke-width:22.17645454"
           id="path31"
           inkscape:connector-curvature="0" />
        <path
           d="M 4163.9492,681.32354 V 436.11211 l -45.1038,24.7751 v -56.53838 l 45.1038,-24.77534 v -224.883 h 73.3728 v 183.90857 l 68.2908,-37.48046 v 56.22081 l -68.2908,37.79803 V 628.5967 h 134.3582 v 52.72684 z"
           style="font-style:normal;font-variant:normal;font-weight:normal;font-stretch:normal;font-size:86.78501129px;line-height:1.25;font-family:'Oswald Regular';-inkscape-font-specification:'Oswald Regular, ';letter-spacing:0px;word-spacing:0px;fill:#f7ca00;fill-opacity:1;stroke:none;stroke-width:22.17645454"
           id="path33"
           inkscape:connector-curvature="0" />
        <path
           d="m 4555.9065,687.04097 q -39.3866,0 -67.6556,-11.75242 -27.9513,-11.75241 -44.4687,-34.62187 -16.5166,-22.86945 -24.1397,-53.36197 -7.623,-30.49277 -7.623,-71.14963 V 316.68255 q 0,-82.26667 33.3511,-124.5116 33.6689,-42.56251 110.5359,-42.56251 76.5493,0 110.2182,42.88007 33.6689,42.56275 33.6689,124.19404 v 199.79034 q 0,82.26642 -33.9867,126.41725 -33.6689,44.15083 -109.9004,44.15083 z m -35.8921,-64.1617 q 14.2935,6.67038 35.8921,6.67038 21.5987,0 35.5751,-6.67038 14.2935,-6.67012 21.5987,-20.32843 7.3053,-13.65806 9.8463,-29.85739 2.8588,-16.51664 2.8588,-40.65661 V 301.43617 q 0,-23.8224 -2.8588,-39.70392 -2.541,-15.88151 -9.8463,-29.22201 -7.3052,-13.34049 -21.5987,-19.37548 -13.9764,-6.35281 -35.5751,-6.35281 -21.5986,0 -35.8921,6.35281 -13.9764,6.03499 -21.2816,19.37548 -7.3053,13.3405 -10.1641,29.22201 -2.541,15.88152 -2.541,39.70392 v 230.60067 q 0,24.13997 2.541,40.65661 2.8588,16.19933 10.1641,29.85739 7.3052,13.65831 21.2816,20.32843 z"
           style="font-style:normal;font-variant:normal;font-weight:normal;font-stretch:normal;font-size:86.78501129px;line-height:1.25;font-family:'Oswald Regular';-inkscape-font-specification:'Oswald Regular, ';letter-spacing:0px;word-spacing:0px;fill:#f7ca00;fill-opacity:1;stroke:none;stroke-width:22.17645454"
           id="path35"
           inkscape:connector-curvature="0" />
        <path
           d="M 4772.5313,681.32354 V 154.69049 h 114.3468 q 85.4436,0 120.383,38.75097 35.2565,38.75122 35.2565,121.97058 v 193.7551 q 0,86.71358 -34.9394,129.59365 -34.6216,42.56275 -115.3002,42.56275 z m 73.3726,-52.72684 h 41.292 q 16.8345,0 29.5396,-3.1764 13.0229,-3.49397 21.5994,-7.94064 8.5758,-4.76448 14.2935,-14.92882 6.0347,-10.16409 8.8936,-18.7401 3.1759,-8.57626 4.7642,-25.41073 1.5883,-16.83446 1.9061,-28.58663 0.3149,-12.06998 0.3149,-34.62187 V 323.98806 q 0,-19.05792 -0.6372,-32.08085 -0.6371,-13.02268 -2.541,-26.04561 -1.9061,-13.02293 -5.7177,-21.28138 -3.8115,-8.25844 -9.8462,-15.56395 -6.0348,-7.62331 -14.9291,-11.43485 -8.8936,-4.1291 -20.9631,-6.35255 -12.0702,-2.22346 -28.2698,-2.22346 h -39.7037 z"
           style="font-style:normal;font-variant:normal;font-weight:normal;font-stretch:normal;font-size:86.78501129px;line-height:1.25;font-family:'Oswald Regular';-inkscape-font-specification:'Oswald Regular, ';letter-spacing:0px;word-spacing:0px;fill:#f7ca00;fill-opacity:1;stroke:none;stroke-width:22.17645454"
           id="path37"
           inkscape:connector-curvature="0" />
        <path
           d="M 5099.0558,681.32354 V 628.5967 L 5253.7426,207.41733 H 5108.585 v -52.72684 h 223.2951 v 31.76303 L 5168.6176,628.5967 h 163.5803 v 52.72684 z"
           style="font-style:normal;font-variant:normal;font-weight:normal;font-stretch:normal;font-size:86.78501129px;line-height:1.25;font-family:'Oswald Regular';-inkscape-font-specification:'Oswald Regular, ';letter-spacing:0px;word-spacing:0px;fill:#f7ca00;fill-opacity:1;stroke:none;stroke-width:22.17645454"
           id="path39"
           inkscape:connector-curvature="0" />
        <path
           d="M 5389.6888,681.32354 V 154.69049 h 72.1028 v 526.63305 z"
           style="font-style:normal;font-variant:normal;font-weight:normal;font-stretch:normal;font-size:86.78501129px;line-height:1.25;font-family:'Oswald Regular';-inkscape-font-specification:'Oswald Regular, ';letter-spacing:0px;word-spacing:0px;fill:#f7ca00;fill-opacity:1;stroke:none;stroke-width:22.17645454"
           id="path41"
           inkscape:connector-curvature="0" />
      </g>
    </g>
  </g>
</svg>
